<svg xmlns="http://www.w3.org/2000/svg" version="1.1" xmlns:xlink="http://www.w3.org/1999/xlink" width="24" height="24" x="0" y="0" viewBox="0 0 90 90" style="enable-background:new 0 0 512 512" xml:space="preserve" class=""><g><path d="M41.349 60.483 19.616 41.446c-3.646-2.684-3-7.137 1.671-7.141h9.475V10.712c0-1.992 2.03-3.592 4.558-3.592h19.515c2.521 0 4.553 1.6 4.553 3.592v23.594h9.479c4.666.004 5.313 4.457 1.666 7.141l-21.73 19.036a5.658 5.658 0 0 1-3.818 1.398 5.68 5.68 0 0 1-3.636-1.398zM13.954 79.806v-5.557c0-2.426 2.105-4.381 4.719-4.381h52.75c2.615 0 4.719 1.955 4.719 4.381v5.557c0 2.424-2.104 4.381-4.719 4.381h-52.75c-2.614 0-4.719-1.958-4.719-4.381z" fill="#000000" opacity="1" data-original="#000000" class=""></path></g></svg>