<svg xmlns="http://www.w3.org/2000/svg" version="1.1" xmlns:xlink="http://www.w3.org/1999/xlink" width="24" height="24" x="0" y="0" viewBox="0 0 32 32" style="enable-background:new 0 0 512 512" xml:space="preserve" class=""><g><path d="M10 8a1 1 0 0 1-1-1V6a3 3 0 0 1 3-3h1a1 1 0 0 1 0 2h-1a1 1 0 0 0-1 1v1a1 1 0 0 1-1 1zM26 23h-1a1 1 0 0 1 0-2h1a1 1 0 0 0 1-1v-1a1 1 0 0 1 2 0v1a3 3 0 0 1-3 3zM28 8a1 1 0 0 1-1-1V6a1 1 0 0 0-1-1h-1a1 1 0 0 1 0-2h1a3 3 0 0 1 3 3v1a1 1 0 0 1-1 1zM28 16a1 1 0 0 1-1-1v-4a1 1 0 0 1 2 0v4a1 1 0 0 1-1 1zM21 5h-4a1 1 0 0 1 0-2h4a1 1 0 0 1 0 2zM20 9H6a3 3 0 0 0-3 3v14a3 3 0 0 0 3 3h14a3 3 0 0 0 3-3V12a3 3 0 0 0-3-3zm-4 11h-2v2a1 1 0 0 1-2 0v-2h-2a1 1 0 0 1 0-2h2v-2a1 1 0 0 1 2 0v2h2a1 1 0 0 1 0 2z" fill="#000000" opacity="1" data-original="#000000" class=""></path></g></svg>