<svg xmlns="http://www.w3.org/2000/svg" version="1.1" xmlns:xlink="http://www.w3.org/1999/xlink" width="24" height="24" x="0" y="0" viewBox="0 0 64 64" style="enable-background:new 0 0 512 512" xml:space="preserve" class=""><g><g fill="#000"><path d="M23 6c-6.627 0-12 5.373-12 12v15a2 2 0 1 1-4 0V18C7 9.163 14.163 2 23 2h14.635a8 8 0 0 1 5.459 2.152l11.364 10.607A8 8 0 0 1 57 20.607V46c0 8.837-7.163 16-16 16H23c-8.837 0-16-7.163-16-16v-3a2 2 0 1 1 4 0v3c0 6.627 5.373 12 12 12h18c6.627 0 12-5.373 12-12V20.607a4 4 0 0 0-1.27-2.924L41 7.67V13a4 4 0 0 0 4 4h2a2 2 0 1 1 0 4h-2a8 8 0 0 1-8-8V6z" fill="#000000" opacity="1" data-original="#000000" class=""></path><path d="M21 34a2 2 0 0 1 2-2h7v-7a2 2 0 1 1 4 0v7h7a2 2 0 1 1 0 4h-7v7a2 2 0 1 1-4 0v-7h-7a2 2 0 0 1-2-2z" fill="#000000" opacity="1" data-original="#000000" class=""></path></g></g></svg>